<svg width="141.546875" height="22.500000" viewBox="0 0 141.547 22.5" fill="none" xmlns="http://www.w3.org/2000/svg" xmlns:xlink="http://www.w3.org/1999/xlink">
	<desc>
			Created with Pixso.
	</desc>
	<defs>
		<clipPath id="clip1_9">
			<rect id="Depth 6, Frame 0" width="16.000000" height="16.000000" transform="translate(0.000000 3.250000)" fill="white" fill-opacity="0"/>
		</clipPath>
	</defs>
	<g clip-path="url(#clip1_9)">
		<path id="Vector - 0" d="M4.6087 13.4412C5.57343 13.2109 6.74147 13.0761 8 13.0761C9.25853 13.0761 10.4266 13.2109 11.3913 13.4412C12.3048 13.6593 13.3322 14.1723 13.7854 14.5284L8.28287 5.70363C8.15237 5.49434 7.84763 5.49434 7.71713 5.70363L2.21458 14.5284C2.66777 14.1723 3.6952 13.6593 4.6087 13.4412Z" fill="#FFFFFF" fill-opacity="1.000000" fill-rule="evenodd"/>
		<path id="Vector - 1" d="M13.3327 15.1713C13.3315 15.1654 13.3292 15.1552 13.3249 15.1402C13.3145 15.1034 13.2983 15.0586 13.2782 15.0108C13.2723 14.9968 13.2663 14.9831 13.2604 14.9701C12.8368 14.6796 11.9929 14.2702 11.2365 14.0896C10.3292 13.873 9.21377 13.7428 8 13.7428C6.78623 13.7428 5.67083 13.873 4.7635 14.0896C4.0004 14.2718 3.14835 14.6868 2.72846 14.9777C2.72461 14.9858 2.72072 14.9943 2.71684 15.0031C2.69973 15.0417 2.68574 15.0795 2.67659 15.113C2.66785 15.1449 2.6668 15.1611 2.66668 15.1629C2.66668 15.1714 2.67013 15.2756 2.89495 15.4605C3.11515 15.6415 3.47407 15.8344 3.97637 16.0091C4.97473 16.3563 6.3973 16.5833 8 16.5833C9.6027 16.5833 11.0253 16.3563 12.0236 16.0091C12.5259 15.8344 12.8848 15.6415 13.105 15.4605C13.3002 15.3 13.3286 15.2004 13.3327 15.1713ZM1.65059 14.1729L7.15143 5.35089C7.54293 4.72303 8.45707 4.72303 8.84857 5.35089L14.3511 14.1757C14.357 14.1851 14.3626 14.1946 14.368 14.2043L13.7854 14.5284C14.368 14.2043 14.3679 14.2042 14.368 14.2043L14.3684 14.205L14.3688 14.2058L14.37 14.208L14.3733 14.2139C14.3759 14.2187 14.3792 14.2249 14.3832 14.2324C14.3913 14.2475 14.4021 14.2682 14.4147 14.2933C14.4397 14.3431 14.4732 14.413 14.5072 14.4939C14.5634 14.6274 14.6667 14.8937 14.6667 15.163C14.6667 15.7309 14.3343 16.1758 13.9519 16.4903C13.5649 16.8086 13.0451 17.0655 12.4617 17.2684C11.2885 17.6765 9.711 17.9167 8 17.9167C6.289 17.9167 4.71153 17.6765 3.53833 17.2684C2.95488 17.0655 2.4351 16.8086 2.04807 16.4903C1.66565 16.1758 1.33333 15.7309 1.33333 15.163C1.33333 14.8742 1.43088 14.6141 1.49774 14.4631C1.53458 14.3799 1.57116 14.3101 1.59896 14.2604C1.613 14.2352 1.62516 14.2145 1.6345 14.199C1.63918 14.1913 1.64318 14.1848 1.64639 14.1796L1.64887 14.1757L1.65059 14.1729ZM11.9956 12.918L8 6.50999L4.00437 12.918C4.15536 12.8703 4.30597 12.8281 4.4539 12.7927C5.47603 12.5487 6.6967 12.4094 8 12.4094C9.3033 12.4094 10.524 12.5487 11.5461 12.7927C11.694 12.8281 11.8446 12.8703 11.9956 12.918Z" fill="#FFFFFF" fill-opacity="1.000000" fill-rule="evenodd"/>
	</g>
	<path id="MarketPlace" d="M47.066 7.245L47.066 19.125L44.33 19.125L44.33 13.671L44.42 10.017L44.384 10.017L41.45 19.125L38.948 19.125L36.014 10.017L35.978 10.017L36.068 13.671L36.068 19.125L33.314 19.125L33.314 7.245L37.724 7.245L39.596 13.293L40.262 15.813L40.298 15.813L40.982 13.311L42.836 7.245L47.066 7.245ZM54.1981 13.419C54.1981 12.999 54.0781 12.669 53.8381 12.429C53.6101 12.177 53.2981 12.051 52.9021 12.051C52.5061 12.051 52.1641 12.153 51.8761 12.357C51.6001 12.549 51.4081 12.897 51.3001 13.401L48.7081 12.789C48.8761 11.925 49.3201 11.235 50.0401 10.719C50.7601 10.203 51.7741 9.945 53.0821 9.945C53.9581 9.945 54.7021 10.077 55.3141 10.341C55.9381 10.593 56.4121 10.977 56.7361 11.493C57.0721 11.997 57.2401 12.621 57.2401 13.365L57.2401 16.659C57.2401 17.127 57.4501 17.361 57.8701 17.361C58.0861 17.361 58.2601 17.337 58.3921 17.289L58.2121 19.035C57.8521 19.203 57.4141 19.287 56.8981 19.287C56.4301 19.287 56.0161 19.215 55.6561 19.071C55.2961 18.915 55.0141 18.687 54.8101 18.387C54.6061 18.075 54.5041 17.685 54.5041 17.217L54.5041 17.109L54.8461 16.983C54.8461 17.499 54.6901 17.931 54.3781 18.279C54.0781 18.627 53.6821 18.885 53.1901 19.053C52.7101 19.221 52.2061 19.305 51.6781 19.305C51.0661 19.305 50.5321 19.209 50.0761 19.017C49.6201 18.825 49.2661 18.549 49.0141 18.189C48.7741 17.817 48.6541 17.361 48.6541 16.821C48.6541 16.173 48.8461 15.639 49.2301 15.219C49.6261 14.787 50.2441 14.487 51.0841 14.319L54.4861 13.617L54.4681 15.237L52.7401 15.597C52.3801 15.669 52.1101 15.777 51.9301 15.921C51.7621 16.053 51.6781 16.257 51.6781 16.533C51.6781 16.797 51.7741 16.995 51.9661 17.127C52.1581 17.259 52.3861 17.325 52.6501 17.325C52.8541 17.325 53.0461 17.295 53.2261 17.235C53.4181 17.175 53.5861 17.085 53.7301 16.965C53.8741 16.833 53.9881 16.671 54.0721 16.479C54.1561 16.287 54.1981 16.059 54.1981 15.795L54.1981 13.419ZM59.3324 19.125L59.3324 10.125L62.0324 10.125L62.1584 12.069C62.3864 11.397 62.7224 10.875 63.1664 10.503C63.6224 10.131 64.1984 9.945 64.8944 9.945C65.1224 9.945 65.3144 9.963 65.4704 9.999C65.6384 10.035 65.7704 10.083 65.8664 10.143L65.5604 12.663C65.4404 12.615 65.2844 12.579 65.0924 12.555C64.9124 12.519 64.6904 12.501 64.4264 12.501C64.0664 12.501 63.7304 12.579 63.4184 12.735C63.1064 12.891 62.8544 13.125 62.6624 13.437C62.4824 13.737 62.3924 14.121 62.3924 14.589L62.3924 19.125L59.3324 19.125ZM76.6987 10.125L72.3788 14.733L71.8027 14.895L69.2288 17.775L69.2108 14.643L73.2968 10.125L76.6987 10.125ZM69.8768 6.309L69.8768 19.125L66.8167 19.125L66.8167 6.309L69.8768 6.309ZM72.8467 12.825L76.8968 19.125L73.5127 19.125L70.8488 14.625L72.8467 12.825ZM81.6619 19.305C80.6659 19.305 79.8019 19.119 79.0699 18.747C78.3499 18.375 77.7919 17.841 77.3959 17.145C76.9999 16.449 76.8019 15.609 76.8019 14.625C76.8019 13.641 76.9999 12.801 77.3959 12.105C77.7919 11.409 78.3439 10.875 79.0519 10.503C79.7719 10.131 80.5939 9.945 81.5179 9.945C82.4659 9.945 83.2699 10.131 83.9299 10.503C84.6019 10.863 85.1119 11.367 85.4599 12.015C85.8079 12.651 85.9819 13.383 85.9819 14.211C85.9819 14.427 85.9759 14.643 85.9639 14.859C85.9519 15.075 85.9339 15.255 85.9099 15.399L78.7819 15.399L78.7819 13.761L84.5599 13.761L83.1019 14.319C83.1019 13.599 82.9699 13.047 82.7059 12.663C82.4539 12.279 82.0579 12.087 81.5179 12.087C81.1339 12.087 80.8039 12.177 80.5279 12.357C80.2639 12.537 80.0599 12.819 79.9159 13.203C79.7839 13.587 79.7179 14.079 79.7179 14.679C79.7179 15.267 79.7959 15.747 79.9519 16.119C80.1079 16.479 80.3299 16.743 80.6179 16.911C80.9059 17.067 81.2539 17.145 81.6619 17.145C82.1179 17.145 82.4779 17.055 82.7419 16.875C83.0179 16.695 83.2219 16.443 83.3539 16.119L85.8019 16.929C85.6339 17.445 85.3399 17.883 84.9199 18.243C84.5119 18.591 84.0199 18.855 83.4439 19.035C82.8799 19.215 82.2859 19.305 81.6619 19.305ZM91.0788 7.263L91.0788 15.921C91.0788 16.353 91.1808 16.665 91.3848 16.857C91.6008 17.037 91.8947 17.127 92.2668 17.127C92.5547 17.127 92.8008 17.097 93.0047 17.037C93.2207 16.965 93.4128 16.863 93.5807 16.731L93.9048 18.621C93.6048 18.837 93.2267 19.005 92.7708 19.125C92.3148 19.245 91.8467 19.305 91.3667 19.305C90.6828 19.305 90.0887 19.209 89.5847 19.017C89.0928 18.825 88.7088 18.519 88.4328 18.099C88.1687 17.679 88.0307 17.121 88.0188 16.425L88.0188 8.109L91.0788 7.263ZM93.7607 10.125L93.7607 12.303L86.4707 12.303L86.4707 10.125L93.7607 10.125ZM100.596 7.245C101.568 7.245 102.396 7.401 103.08 7.713C103.764 8.025 104.286 8.475 104.646 9.063C105.006 9.651 105.186 10.365 105.186 11.205C105.186 12.045 105.006 12.759 104.646 13.347C104.286 13.935 103.764 14.385 103.08 14.697C102.396 15.009 101.568 15.165 100.596 15.165L98.2381 15.165L98.2381 19.125L95.1421 19.125L95.1421 7.245L100.596 7.245ZM100.11 12.843C100.758 12.843 101.244 12.711 101.568 12.447C101.904 12.171 102.072 11.757 102.072 11.205C102.072 10.653 101.904 10.245 101.568 9.981C101.244 9.705 100.758 9.567 100.11 9.567L98.2381 9.567L98.2381 12.843L100.11 12.843ZM109.716 6.309L109.716 16.065C109.716 16.461 109.782 16.743 109.914 16.911C110.046 17.079 110.268 17.163 110.58 17.163C110.76 17.163 110.91 17.151 111.03 17.127C111.15 17.103 111.294 17.067 111.462 17.019L111.264 18.855C111.048 18.987 110.766 19.095 110.418 19.179C110.07 19.263 109.728 19.305 109.392 19.305C108.432 19.305 107.736 19.083 107.304 18.639C106.872 18.195 106.656 17.469 106.656 16.461L106.656 6.309L109.716 6.309ZM117.479 13.419C117.479 12.999 117.359 12.669 117.119 12.429C116.891 12.177 116.579 12.051 116.183 12.051C115.787 12.051 115.445 12.153 115.157 12.357C114.881 12.549 114.689 12.897 114.581 13.401L111.989 12.789C112.157 11.925 112.601 11.235 113.321 10.719C114.041 10.203 115.055 9.945 116.363 9.945C117.239 9.945 117.983 10.077 118.595 10.341C119.219 10.593 119.693 10.977 120.017 11.493C120.353 11.997 120.521 12.621 120.521 13.365L120.521 16.659C120.521 17.127 120.731 17.361 121.151 17.361C121.367 17.361 121.541 17.337 121.673 17.289L121.493 19.035C121.133 19.203 120.695 19.287 120.179 19.287C119.711 19.287 119.297 19.215 118.937 19.071C118.577 18.915 118.295 18.687 118.091 18.387C117.887 18.075 117.785 17.685 117.785 17.217L117.785 17.109L118.127 16.983C118.127 17.499 117.971 17.931 117.659 18.279C117.359 18.627 116.963 18.885 116.471 19.053C115.991 19.221 115.487 19.305 114.959 19.305C114.347 19.305 113.813 19.209 113.357 19.017C112.901 18.825 112.547 18.549 112.295 18.189C112.055 17.817 111.935 17.361 111.935 16.821C111.935 16.173 112.127 15.639 112.511 15.219C112.907 14.787 113.525 14.487 114.365 14.319L117.767 13.617L117.749 15.237L116.021 15.597C115.661 15.669 115.391 15.777 115.211 15.921C115.043 16.053 114.959 16.257 114.959 16.533C114.959 16.797 115.055 16.995 115.247 17.127C115.439 17.259 115.667 17.325 115.931 17.325C116.135 17.325 116.327 17.295 116.507 17.235C116.699 17.175 116.867 17.085 117.011 16.965C117.155 16.833 117.269 16.671 117.353 16.479C117.437 16.287 117.479 16.059 117.479 15.795L117.479 13.419ZM126.817 9.945C127.729 9.945 128.485 10.077 129.085 10.341C129.697 10.593 130.171 10.935 130.507 11.367C130.855 11.787 131.071 12.243 131.155 12.735L128.329 13.671C128.245 13.155 128.089 12.771 127.861 12.519C127.645 12.255 127.327 12.123 126.907 12.123C126.523 12.123 126.199 12.213 125.935 12.393C125.683 12.561 125.491 12.837 125.359 13.221C125.227 13.593 125.161 14.073 125.161 14.661C125.161 15.249 125.233 15.729 125.377 16.101C125.521 16.461 125.725 16.725 125.989 16.893C126.253 17.049 126.565 17.127 126.925 17.127C127.225 17.127 127.471 17.073 127.663 16.965C127.867 16.845 128.035 16.677 128.167 16.461C128.299 16.245 128.383 15.981 128.419 15.669L131.173 16.551C131.089 17.079 130.861 17.553 130.489 17.973C130.129 18.381 129.649 18.705 129.049 18.945C128.449 19.185 127.747 19.305 126.943 19.305C125.959 19.305 125.101 19.125 124.369 18.765C123.637 18.393 123.073 17.859 122.677 17.163C122.281 16.455 122.083 15.609 122.083 14.625C122.083 13.641 122.281 12.801 122.677 12.105C123.073 11.397 123.625 10.863 124.333 10.503C125.053 10.131 125.881 9.945 126.817 9.945ZM136.881 19.305C135.885 19.305 135.021 19.119 134.289 18.747C133.569 18.375 133.011 17.841 132.615 17.145C132.219 16.449 132.021 15.609 132.021 14.625C132.021 13.641 132.219 12.801 132.615 12.105C133.011 11.409 133.563 10.875 134.271 10.503C134.991 10.131 135.813 9.945 136.737 9.945C137.685 9.945 138.489 10.131 139.149 10.503C139.821 10.863 140.331 11.367 140.679 12.015C141.027 12.651 141.201 13.383 141.201 14.211C141.201 14.427 141.195 14.643 141.183 14.859C141.171 15.075 141.153 15.255 141.129 15.399L134.001 15.399L134.001 13.761L139.779 13.761L138.321 14.319C138.321 13.599 138.189 13.047 137.925 12.663C137.673 12.279 137.277 12.087 136.737 12.087C136.353 12.087 136.023 12.177 135.747 12.357C135.483 12.537 135.279 12.819 135.135 13.203C135.003 13.587 134.937 14.079 134.937 14.679C134.937 15.267 135.015 15.747 135.171 16.119C135.327 16.479 135.549 16.743 135.837 16.911C136.125 17.067 136.473 17.145 136.881 17.145C137.337 17.145 137.697 17.055 137.961 16.875C138.237 16.695 138.441 16.443 138.573 16.119L141.021 16.929C140.853 17.445 140.559 17.883 140.139 18.243C139.731 18.591 139.239 18.855 138.663 19.035C138.099 19.215 137.505 19.305 136.881 19.305Z" fill="#FFFFFF" fill-opacity="1.000000" fill-rule="evenodd"/>
</svg>
