<svg width="17.500000" height="14.996460" viewBox="0 0 17.5 14.9965" fill="none" xmlns="http://www.w3.org/2000/svg" xmlns:xlink="http://www.w3.org/1999/xlink">
	<desc>
			Created with Pixso.
	</desc>
	<defs/>
	<path id="Vector - 0" d="M12.6562 0C11.043 0 9.63049 0.69375 8.75 1.86641C7.86951 0.69375 6.45703 0 4.84375 0C2.16992 0.00301361 0.00305176 2.16987 0 4.84375C0 10.3125 8.10864 14.7391 8.45386 14.9219C8.63879 15.0213 8.86121 15.0213 9.04614 14.9219C9.39136 14.7391 17.5 10.3125 17.5 4.84375C17.4969 2.16987 15.3301 0.00301361 12.6562 0ZM8.75 13.6562C7.32349 12.825 1.25 9.03828 1.25 4.84375C1.25256 2.86005 2.86011 1.25258 4.84375 1.25C6.36328 1.25 7.63904 2.05938 8.17188 3.35938C8.26819 3.59382 8.49658 3.74689 8.75 3.74689C9.00342 3.74689 9.23181 3.59382 9.32812 3.35938C9.86096 2.05703 11.1367 1.25 12.6562 1.25C14.6399 1.25258 16.2474 2.86005 16.25 4.84375C16.25 9.03203 10.175 12.8242 8.75 13.6562Z" fill="#FFFFFF" fill-opacity="1.000000" fill-rule="evenodd"/>
</svg>
